<svg width="66" height="66" viewBox="0 0 66 66" fill="none" xmlns="http://www.w3.org/2000/svg">
<g clip-path="url(#clip0_500_163)">
<path d="M12.9822 56.7094C13.1634 56.7094 13.3372 56.6374 13.4653 56.5093C13.5934 56.3812 13.6654 56.2074 13.6654 56.0262V50.5602C13.6654 49.8353 13.3775 49.1402 12.8649 48.6276C12.3524 48.1151 11.6572 47.8271 10.9324 47.8271H5.4664C4.74156 47.8271 4.04641 48.1151 3.53388 48.6276C3.02134 49.1402 2.7334 49.8353 2.7334 50.5602V56.0262C2.7334 56.2074 2.80538 56.3812 2.93352 56.5093C3.06165 56.6374 3.23544 56.7094 3.41665 56.7094H12.9822Z" fill="#005734"/>
<path d="M29.3796 56.7094C29.5608 56.7094 29.7346 56.6374 29.8628 56.5093C29.9909 56.3811 30.0629 56.2074 30.0629 56.0261V36.8951C30.0629 36.1703 29.7749 35.4751 29.2624 34.9626C28.7499 34.4501 28.0547 34.1621 27.3299 34.1621H21.8639C21.139 34.1621 20.4439 34.4501 19.9313 34.9626C19.4188 35.4751 19.1309 36.1703 19.1309 36.8951V56.0261C19.1309 56.2074 19.2028 56.3811 19.331 56.5093C19.4591 56.6374 19.6329 56.7094 19.8141 56.7094H29.3796Z" fill="#005734"/>
<path d="M45.7781 56.7102C45.9593 56.7102 46.1331 56.6382 46.2612 56.5101C46.3893 56.3819 46.4613 56.2081 46.4613 56.0269V42.3619C46.4613 41.6371 46.1734 40.9419 45.6608 40.4294C45.1483 39.9168 44.4531 39.6289 43.7283 39.6289H38.2623C37.5375 39.6289 36.8423 39.9168 36.3298 40.4294C35.8172 40.9419 35.5293 41.6371 35.5293 42.3619V56.0269C35.5293 56.2081 35.6013 56.3819 35.7294 56.5101C35.8576 56.6382 36.0313 56.7102 36.2125 56.7102H45.7781Z" fill="#005734"/>
<path d="M62.1755 56.7094C62.3567 56.7094 62.5305 56.6374 62.6587 56.5093C62.7868 56.3811 62.8588 56.2073 62.8588 56.0261V23.2301C62.8588 22.5052 62.5708 21.8101 62.0583 21.2975C61.5458 20.785 60.8506 20.4971 60.1258 20.4971H54.6598C53.9349 20.4971 53.2398 20.785 52.7272 21.2975C52.2147 21.8101 51.9268 22.5052 51.9268 23.2301V56.0261C51.9268 56.2073 51.9987 56.3811 52.1269 56.5093C52.255 56.6374 52.4288 56.7094 52.61 56.7094H62.1755Z" fill="#005734"/>
<path d="M9.56562 36.8953C11.0153 36.8953 12.4056 36.3194 13.4307 35.2943C14.4557 34.2692 15.0316 32.8789 15.0316 31.4293C15.0255 30.8718 14.9333 30.3187 14.7583 29.7894L23.4138 22.5743C24.5 23.1724 25.7605 23.3741 26.9792 23.1447C28.1978 22.9153 29.2987 22.2692 30.0932 21.3171L36.9257 23.5965C37.0638 24.9767 37.7215 26.2528 38.7655 27.1661C39.8095 28.0795 41.1617 28.5617 42.5481 28.5151C43.9344 28.4686 45.2512 27.8967 46.2316 26.9153C47.2119 25.934 47.7825 24.6166 47.8277 23.2302C47.8223 22.3605 47.6056 21.5052 47.1964 20.7377L56.1797 10.2567C57.2321 10.8176 58.4394 11.0179 59.6165 10.8269C60.7936 10.6358 61.8756 10.0638 62.6964 9.19879C63.5173 8.33373 64.0317 7.22331 64.1608 6.03779C64.29 4.85228 64.0267 3.65714 63.4113 2.63564C62.796 1.61414 61.8626 0.82268 60.7542 0.382636C59.6458 -0.0574087 58.4237 -0.121745 57.2753 0.199494C56.1268 0.520733 55.1155 1.20981 54.3963 2.16106C53.6771 3.1123 53.2897 4.27319 53.2937 5.46571C53.3008 5.9956 53.3865 6.52149 53.5479 7.02626L44.0835 18.0703C43.0599 17.7056 41.9487 17.6655 40.9015 17.9555C39.8543 18.2455 38.9221 18.8516 38.2321 19.691L31.3996 17.4144C31.3566 16.6401 31.1489 15.8839 30.7904 15.1962C30.4319 14.5085 29.9308 13.9053 29.3206 13.4266C28.7104 12.948 28.0052 12.6051 27.2519 12.4207C26.4986 12.2364 25.7147 12.2148 24.9524 12.3575C24.1901 12.5002 23.4671 12.8038 22.8315 13.2482C22.1959 13.6925 21.6625 14.2674 21.2667 14.9343C20.871 15.6012 20.622 16.3449 20.5365 17.1157C20.451 17.8864 20.5309 18.6666 20.7709 19.404L12.1237 26.6301C11.3395 26.1992 10.4604 25.9701 9.56562 25.9632C8.11594 25.9632 6.72564 26.5391 5.70057 27.5642C4.67549 28.5893 4.09961 29.9796 4.09961 31.4293C4.09961 32.8789 4.67549 34.2692 5.70057 35.2943C6.72564 36.3194 8.11594 36.8953 9.56562 36.8953Z" fill="#005734"/>
<path d="M62.8591 60.126H2.733C2.01168 60.1372 1.32306 60.4288 0.812947 60.9389C0.302832 61.449 0.0112727 62.1377 0 62.859C0 63.5838 0.287941 64.279 0.800478 64.7915C1.31302 65.304 2.00817 65.592 2.733 65.592H62.8591C63.5839 65.592 64.2791 65.304 64.7916 64.7915C65.3042 64.279 65.5921 63.5838 65.5921 62.859C65.5815 62.1374 65.2902 61.4484 64.7799 60.9382C64.2697 60.4279 63.5806 60.1366 62.8591 60.126Z" fill="#005734"/>
</g>
<defs>
<clipPath id="clip0_500_163">
<rect width="65.5921" height="65.5921" fill="white"/>
</clipPath>
</defs>
</svg>
