<svg width="68" height="68" viewBox="0 0 68 68" fill="none" xmlns="http://www.w3.org/2000/svg">
<path d="M47.1045 6.22949H53.3027C53.7046 6.22949 54.09 6.38912 54.3741 6.67326C54.6582 6.9574 54.8179 7.34278 54.8179 7.74462V49.9614C54.8179 50.3632 54.6582 50.7486 54.3741 51.0327C54.09 51.3168 53.7047 51.4764 53.3028 51.4764H47.1044C46.7026 51.4764 46.3172 51.3168 46.0331 51.0327C45.749 50.7486 45.5894 50.3632 45.5894 49.9614V7.74472C45.5893 7.54575 45.6285 7.34871 45.7047 7.16488C45.7808 6.98104 45.8924 6.814 46.0331 6.6733C46.1738 6.5326 46.3408 6.42098 46.5246 6.34483C46.7085 6.26869 46.9055 6.22949 47.1045 6.22949Z" fill="#005734"/>
<path d="M57.6641 20.6445V37.0619C59.6509 36.7937 61.473 35.8139 62.7925 34.3044C64.1119 32.7949 64.839 30.8581 64.839 28.8532C64.839 26.8483 64.1119 24.9115 62.7925 23.402C61.473 21.8925 59.6509 20.9128 57.6641 20.6445Z" fill="#005734"/>
<path d="M21.6299 40.2686V19.6591H12.9459C10.2889 19.6246 7.71696 20.5948 5.74475 22.3755C3.77254 24.1562 2.54561 26.6161 2.30952 29.2628C2.21349 30.671 2.40778 32.0839 2.88033 33.4139C3.35289 34.7439 4.09364 35.9626 5.05664 36.9945C6.01964 38.0264 7.18437 38.8495 8.4786 39.4127C9.77283 39.9759 11.169 40.2672 12.5804 40.2686H21.6299Z" fill="#005734"/>
<path d="M24.4776 41.0183L27.9477 42.073L27.9266 48.644H21.6298V43.1172H12.5802C12.2743 43.1172 11.9685 43.1066 11.6731 43.0855L9.73402 42.9398C9.72505 42.9391 9.71605 42.9405 9.70772 42.9439C9.69939 42.9473 9.69196 42.9525 9.686 42.9593C9.68005 42.966 9.67573 42.974 9.67339 42.9827C9.67105 42.9914 9.67076 43.0005 9.67252 43.0093L13.2656 61.0792C13.3511 61.5081 13.5809 61.8948 13.9167 62.1749C14.2525 62.4551 14.6741 62.6119 15.1114 62.6191L19.6889 62.693C19.9423 62.6972 20.1939 62.6509 20.4292 62.5568C20.6645 62.4628 20.8787 62.3228 21.0593 62.1451C21.24 61.9674 21.3834 61.7555 21.4813 61.5218C21.5793 61.2881 21.6297 61.0373 21.6296 60.7839V52.3355H28.3166C29.1907 52.3365 30.0294 51.9905 30.6484 51.3734C31.2675 50.7563 31.6162 49.9187 31.618 49.0447V43.1909L42.7465 46.567V12.5391L24.4776 18.6895V41.0183Z" fill="#005734"/>
</svg>
