<svg width="105" height="105" viewBox="0 0 105 105" fill="none" xmlns="http://www.w3.org/2000/svg">
<g filter="url(#filter0_d_327_208)">
<path d="M51.6667 7C25.9417 7 5 25.3167 5 47.8333C5 70.35 25.9417 88.6667 51.6667 88.6667C56.4796 88.6611 61.2689 87.9937 65.9 86.6833L82.0292 96.95C82.4695 97.2325 82.9777 97.3914 83.5005 97.41C84.0233 97.4286 84.5415 97.3062 85.0008 97.0557C85.4601 96.8052 85.8435 96.4357 86.111 95.9861C86.3784 95.5364 86.52 95.0231 86.5208 94.5V74.8708C90.1703 71.3699 93.0825 67.1743 95.0861 62.5309C97.0897 57.8876 98.1442 52.8903 98.1875 47.8333C98.3333 25.3167 77.3917 7 51.6667 7ZM75 47.8333C75 48.6069 74.6927 49.3487 74.1457 49.8957C73.5987 50.4427 72.8569 50.75 72.0833 50.75H31.25C30.4765 50.75 29.7346 50.4427 29.1876 49.8957C28.6406 49.3487 28.3333 48.6069 28.3333 47.8333C28.3333 47.0598 28.6406 46.3179 29.1876 45.7709C29.7346 45.224 30.4765 44.9167 31.25 44.9167H72.0833C72.8569 44.9167 73.5987 45.224 74.1457 45.7709C74.6927 46.3179 75 47.0598 75 47.8333ZM65.5208 62.4167C65.5208 63.1902 65.2135 63.9321 64.6666 64.4791C64.1196 65.026 63.3777 65.3333 62.6042 65.3333H40.7292C39.9556 65.3333 39.2138 65.026 38.6668 64.4791C38.1198 63.9321 37.8125 63.1902 37.8125 62.4167C37.8125 61.6431 38.1198 60.9012 38.6668 60.3543C39.2138 59.8073 39.9556 59.5 40.7292 59.5H62.6042C63.3777 59.5 64.1196 59.8073 64.6666 60.3543C65.2135 60.9012 65.5208 61.6431 65.5208 62.4167ZM29.15 33.25C29.15 32.4764 29.4573 31.7346 30.0043 31.1876C30.5513 30.6406 31.2931 30.3333 32.0667 30.3333H71.2667C72.0402 30.3333 72.7821 30.6406 73.3291 31.1876C73.876 31.7346 74.1833 32.4764 74.1833 33.25C74.1833 34.0235 73.876 34.7654 73.3291 35.3124C72.7821 35.8594 72.0402 36.1667 71.2667 36.1667H32.0667C31.2931 36.1667 30.5513 35.8594 30.0043 35.3124C29.4573 34.7654 29.15 34.0235 29.15 33.25Z" fill="#005734"/>
</g>
<defs>
<filter id="filter0_d_327_208" x="-11.6667" y="-5.5" width="126.522" height="123.745" filterUnits="userSpaceOnUse" color-interpolation-filters="sRGB">
<feFlood flood-opacity="0" result="BackgroundImageFix"/>
<feColorMatrix in="SourceAlpha" type="matrix" values="0 0 0 0 0 0 0 0 0 0 0 0 0 0 0 0 0 0 127 0" result="hardAlpha"/>
<feOffset dy="4.16667"/>
<feGaussianBlur stdDeviation="8.33333"/>
<feComposite in2="hardAlpha" operator="out"/>
<feColorMatrix type="matrix" values="0 0 0 0 0 0 0 0 0 0.341176 0 0 0 0 0.203922 0 0 0 0.47 0"/>
<feBlend mode="normal" in2="BackgroundImageFix" result="effect1_dropShadow_327_208"/>
<feBlend mode="normal" in="SourceGraphic" in2="effect1_dropShadow_327_208" result="shape"/>
</filter>
</defs>
</svg>
