<svg width="30" height="30" viewBox="0 0 42 42" fill="none" xmlns="http://www.w3.org/2000/svg">
<g clip-path="url(#clip0_431_5)">
<path d="M41.6175 0.383277C41.7992 0.565274 41.9234 0.796647 41.9747 1.04865C42.0261 1.30066 42.0022 1.5622 41.9062 1.80078L26.6313 39.9867C26.4967 40.3229 26.2719 40.6156 25.9817 40.8323C25.6915 41.0491 25.3471 41.1816 24.9865 41.2153C24.6258 41.2489 24.2628 41.1824 23.9375 41.0231C23.6122 40.8637 23.3372 40.6177 23.1427 40.3122L14.8005 27.2003L1.68858 18.858C1.38229 18.6637 1.13563 18.3886 0.975814 18.063C0.816 17.7374 0.749245 17.3739 0.782916 17.0128C0.816587 16.6516 0.949376 16.3068 1.16663 16.0164C1.38388 15.7259 1.67715 15.5011 2.01408 15.3668L40.2 0.0971519C40.4385 0.00110911 40.7001 -0.0227252 40.9521 0.0286098C41.2041 0.0799448 41.4355 0.204187 41.6175 0.385902V0.383277ZM17.4202 26.4338L24.6678 37.821L37.092 6.76203L17.4202 26.4338ZM35.2361 4.90615L4.17708 17.3303L15.567 24.5753L35.2387 4.90615H35.2361Z" fill="white"/>
</g>
<defs>
<clipPath id="clip0_431_5">
<rect width="42" height="42" fill="white"/>
</clipPath>
</defs>
</svg>
