<svg width="73" height="73" viewBox="0 0 73 73" fill="none" xmlns="http://www.w3.org/2000/svg">
<path d="M63.0495 47.2868C61.6558 47.2907 60.2974 47.7256 59.1606 48.5318C58.0237 49.3381 57.1641 50.4763 56.6995 51.7903H51.7907V42.7832H47.2871V54.0421C47.2871 54.6393 47.5243 55.212 47.9466 55.6343C48.3689 56.0566 48.9417 56.2939 49.5389 56.2939H56.6995C57.1126 57.4623 57.8392 58.4945 58.7996 59.2776C59.7601 60.0608 60.9175 60.5646 62.1451 60.734C63.3728 60.9034 64.6234 60.7318 65.76 60.238C66.8967 59.7443 67.8756 58.9474 68.5897 57.9345C69.3038 56.9216 69.7255 55.7318 69.8086 54.4954C69.8918 53.2589 69.6332 52.0234 69.0612 50.924C68.4892 49.8246 67.6258 48.9038 66.5655 48.2623C65.5052 47.6208 64.2888 47.2833 63.0495 47.2868Z" fill="#005734"/>
<path d="M13.5108 38.2804H58.5464C61.1215 38.2658 63.6137 37.3688 65.6076 35.7392C67.6015 34.1095 68.9764 31.8456 69.5032 29.3249C70.03 26.8042 69.6768 24.1791 68.5024 21.8873C67.3281 19.5955 65.4036 17.7756 63.0499 16.7309C62.0498 15.0618 60.6342 13.6805 58.9412 12.7215C57.2482 11.7625 55.3355 11.2587 53.3898 11.2591C52.8082 11.2577 52.2277 11.3104 51.6559 11.4167C49.9426 9.69226 47.7957 8.46202 45.4417 7.85567C43.0876 7.24933 40.6136 7.28933 38.2804 7.97148C36.6045 6.16491 34.5732 4.72428 32.3141 3.74003C30.0549 2.75578 27.6167 2.24916 25.1525 2.25196C20.8295 2.25491 16.6518 3.81234 13.3818 6.63996C10.1119 9.46759 7.9678 13.3768 7.34097 17.6541C5.78485 18.6735 4.50558 20.0627 3.61752 21.6973C2.72947 23.332 2.2603 25.1612 2.25195 27.0215C2.25195 30.0075 3.43815 32.8713 5.5496 34.9827C6.59509 36.0282 7.83626 36.8575 9.20225 37.4233C10.5682 37.9892 12.0323 38.2804 13.5108 38.2804Z" fill="#005734"/>
<path d="M38.2806 56.6992V42.7832H33.777V56.6992C32.2746 57.2304 31.0083 58.2756 30.202 59.6501C29.3957 61.0246 29.1013 62.6399 29.3707 64.2105C29.6402 65.7811 30.4562 67.2059 31.6746 68.233C32.893 69.2601 34.4352 69.8235 36.0288 69.8235C37.6223 69.8235 39.1646 69.2601 40.3829 68.233C41.6013 67.2059 42.4173 65.7811 42.6868 64.2105C42.9563 62.6399 42.6619 61.0246 41.8555 59.6501C41.0492 58.2756 39.783 57.2304 38.2806 56.6992Z" fill="#005734"/>
<path d="M20.2656 56.2939H15.3567C14.8256 54.7914 13.7803 53.5252 12.4058 52.7189C11.0313 51.9126 9.41601 51.6181 7.84541 51.8876C6.27481 52.1571 4.85003 52.9731 3.8229 54.1915C2.79577 55.4098 2.23242 56.9521 2.23242 58.5456C2.23242 60.1392 2.79577 61.6814 3.8229 62.8998C4.85003 64.1182 6.27481 64.9342 7.84541 65.2037C9.41601 65.4731 11.0313 65.1787 12.4058 64.3724C13.7803 63.5661 14.8256 62.2998 15.3567 60.7974H22.5174C23.1146 60.7974 23.6873 60.5602 24.1096 60.1379C24.5319 59.7156 24.7692 59.1428 24.7692 58.5456V42.7832H20.2656V56.2939Z" fill="#005734"/>
</svg>
