<svg width="63" height="63" viewBox="0 0 63 63" fill="none" xmlns="http://www.w3.org/2000/svg">
<path d="M13.0231 46.8838H7.81379C4.94868 46.8838 2.60449 49.228 2.60449 52.0931C2.60449 54.9582 4.94868 57.3024 7.81379 57.3024H13.0231C15.8882 57.3024 18.2324 54.9582 18.2324 52.0931C18.2324 49.228 15.8882 46.8838 13.0231 46.8838Z" fill="#005734"/>
<path d="M33.8605 41.6738H28.6512C25.7861 41.6738 23.4419 44.018 23.4419 46.8831V52.0924C23.4419 54.9575 25.7861 57.3017 28.6512 57.3017H33.8605C36.7256 57.3017 39.0698 54.9575 39.0698 52.0924V46.8831C39.0698 44.018 36.7256 41.6738 33.8605 41.6738Z" fill="#005734"/>
<path d="M54.6974 31.2559H49.4881C46.623 31.2559 44.2788 33.6 44.2788 36.4652V52.0931C44.2788 54.9582 46.623 57.3024 49.4881 57.3024H54.6974C57.5625 57.3024 59.9067 54.9582 59.9067 52.0931V36.4652C59.9067 33.6 57.5625 31.2559 54.6974 31.2559Z" fill="#005734"/>
<path d="M57.3022 5.20898H40.1115C37.7673 5.20898 36.7254 8.0741 38.2882 9.63689L43.237 14.5857C33.5998 25.5253 19.7952 33.8601 5.20914 33.8601C3.64635 33.8601 2.60449 34.902 2.60449 36.4648C2.60449 38.0276 3.64635 39.0694 5.20914 39.0694C22.6603 39.0694 38.8091 34.1206 50.5301 21.8787L55.2184 26.5671C56.7812 28.1299 59.6463 27.0881 59.6463 24.7439V7.81364C59.9068 6.25084 58.865 5.20898 57.3022 5.20898Z" fill="#005734"/>
</svg>
