<svg width="47" height="69" viewBox="0 0 47 69" fill="none" xmlns="http://www.w3.org/2000/svg">
<path d="M14.1924 45.0121L17.2625 54.9504L21.6492 51.3418L15.3187 44.1484L14.1924 45.0121Z" fill="#005734"/>
<path d="M37.8564 48.6373C36.4244 47.8896 34.6835 46.9805 32.6428 45.8556L29.3542 56.4929C29.2788 56.7369 29.0868 56.9271 28.8423 57.0003C28.8086 57.0103 28.7748 57.0173 28.7406 57.0227C28.7292 57.0245 28.7179 57.0251 28.7065 57.0263C28.6836 57.0289 28.6611 57.0307 28.6382 57.0314C28.633 57.0314 28.6279 57.0323 28.6225 57.0323C28.6158 57.0323 28.6093 57.0309 28.6024 57.0305C28.5723 57.0297 28.5424 57.0271 28.5127 57.0229C28.5027 57.0214 28.4929 57.0206 28.4831 57.0188C28.4457 57.0119 28.4089 57.0023 28.3728 56.9898C28.3641 56.9867 28.3559 56.983 28.3476 56.9797C28.3187 56.9686 28.2906 56.9558 28.2633 56.9411C28.2531 56.9361 28.2435 56.9308 28.2335 56.925C28.1997 56.905 28.1665 56.8831 28.1355 56.8578L22.7465 52.4216L17.3538 56.858C17.3227 56.8835 17.2894 56.9055 17.2552 56.9255C17.2461 56.9308 17.2368 56.9357 17.2275 56.941C17.1989 56.9562 17.1694 56.9697 17.139 56.9812C17.132 56.9838 17.1253 56.9871 17.1181 56.9895C17.0812 57.0024 17.0433 57.0122 17.005 57.0193C16.9969 57.0207 16.9887 57.0215 16.9805 57.0227C16.9491 57.0274 16.9173 57.0302 16.8852 57.031C16.8792 57.0312 16.8733 57.0325 16.8673 57.0325C16.8625 57.0325 16.8578 57.0315 16.853 57.0315C16.8292 57.031 16.8053 57.0289 16.7815 57.0263C16.7708 57.025 16.7602 57.0245 16.7496 57.0229C16.7153 57.0175 16.6811 57.0103 16.6475 57.0001C16.6169 56.991 16.5872 56.9799 16.5584 56.9673C16.3569 56.8784 16.2016 56.706 16.1359 56.4927L12.8499 45.8555C10.7497 47.0125 8.96971 47.9378 7.50672 48.6986C3.70559 50.6752 1.7976 51.6674 0.940428 53.1894C0.0728 54.7305 0.104504 57.0848 0.16775 61.7753C0.185073 63.0577 0.204521 64.4924 0.208606 66.1327C7.58712 67.759 15.1113 68.5836 22.5819 68.5834C30.059 68.5833 37.6938 67.7576 45.2839 66.1288C45.2877 64.5427 45.3057 63.1474 45.3215 61.8998C45.3823 57.157 45.4132 54.7762 44.5299 53.2122C43.657 51.6661 41.7185 50.6538 37.8564 48.6373ZM40.2702 63.1317H33.2693C32.8464 63.1317 32.5035 62.7888 32.5035 62.3659C32.5035 61.943 32.8464 61.6001 33.2693 61.6001H40.2702C40.6931 61.6001 41.036 61.943 41.036 62.3659C41.036 62.7888 40.6931 63.1317 40.2702 63.1317ZM40.2702 58.4197H33.2693C32.8464 58.4197 32.5035 58.0768 32.5035 57.6538C32.5035 57.2309 32.8464 56.888 33.2693 56.888H40.2702C40.6931 56.888 41.036 57.2309 41.036 57.6538C41.036 58.0768 40.6931 58.4197 40.2702 58.4197Z" fill="#005734"/>
<path d="M33.7292 25.2597C33.7312 25.2165 33.7323 25.174 33.7333 25.1314C33.7366 25.0162 33.739 24.9018 33.739 24.7905C33.739 19.0016 28.9015 14.292 22.9554 14.292C17.0093 14.292 12.1719 19.0014 12.1719 24.7905C12.1719 24.9021 12.1743 25.0167 12.1776 25.1317C12.1789 25.1742 12.18 25.2165 12.1817 25.2595C12.1841 25.3206 12.1876 25.3827 12.1907 25.4445C12.4806 30.8761 16.2559 40.3561 22.9555 40.3561C29.6555 40.3561 33.431 30.8755 33.7206 25.4439C33.7235 25.3824 33.7271 25.3205 33.7292 25.2597Z" fill="#005734"/>
<path d="M5.65176 27.7435H10.9146C10.792 27.0315 10.7103 26.3376 10.6702 25.6811C10.6693 25.6659 10.6684 25.6507 10.6675 25.6355C10.6629 25.5575 10.6586 25.4801 10.6554 25.4032C10.6531 25.3527 10.6514 25.3029 10.6498 25.2531C10.648 25.2021 10.6461 25.1512 10.6449 25.1011C10.6425 24.9962 10.641 24.8924 10.641 24.7904C10.641 18.1571 16.1656 12.7605 22.956 12.7605C29.7466 12.7605 35.2711 18.1571 35.2711 24.7904C35.2711 24.8924 35.2694 24.9963 35.267 25.1012C35.266 25.1512 35.2639 25.2021 35.2622 25.2527C35.2606 25.3027 35.259 25.3526 35.2569 25.4031C35.2534 25.4801 35.2492 25.5577 35.2448 25.6358C35.2438 25.6507 35.243 25.6657 35.242 25.6807C35.2019 26.3371 35.1202 27.0311 34.9978 27.7433H41.3043C44.42 27.7433 46.9549 25.1035 46.9549 21.859C46.9549 20.2555 46.3464 18.7569 45.2422 17.6389C45.0618 17.4563 44.9849 17.1953 45.0376 16.9442C45.1386 16.4606 45.1899 15.9587 45.1899 15.4529C45.1899 11.5874 42.1672 8.44258 38.4515 8.44258C37.569 8.44258 36.7123 8.61696 35.9061 8.96081C35.6509 9.06981 35.3564 9.0319 35.1364 8.86128C34.9168 8.69099 34.8069 8.41513 34.8488 8.14024C34.9063 7.76567 34.9356 7.38489 34.9356 7.00901C34.9356 3.14448 31.9125 0 28.197 0C25.8664 0 23.7335 1.22684 22.4913 3.28159C22.3846 3.45793 22.2114 3.58409 22.0107 3.631C21.8098 3.67774 21.5989 3.64211 21.425 3.53163C20.5436 2.97076 19.5276 2.6743 18.4867 2.6743C15.7087 2.6743 13.364 4.74164 12.9116 7.58983C12.8526 7.96195 12.5315 8.23552 12.1555 8.23552C12.1528 8.23552 12.1502 8.23552 12.1478 8.23552L12.0281 8.23438C8.91946 8.23438 6.38407 10.8735 6.38407 14.1177C6.38407 14.4421 6.40989 14.7695 6.46072 15.0904C6.49634 15.3151 6.43016 15.5439 6.28029 15.7149C6.13043 15.886 5.91585 15.9832 5.68477 15.9757L5.64228 15.9747C2.53032 15.9803 0 18.6178 0 21.8594C0 25.1037 2.53539 27.7435 5.65176 27.7435Z" fill="#005734"/>
<path d="M28.2273 54.9504L31.3005 45.01L30.1888 44.1504L23.8447 51.3428L28.2273 54.9504Z" fill="#005734"/>
</svg>
