<svg width="59" height="59" viewBox="0 0 59 59" fill="none" xmlns="http://www.w3.org/2000/svg">
<g clip-path="url(#clip0_500_194)">
<path d="M58.7845 24.6122L58.7596 24.5551L58.7735 24.544L58.5909 24.1956L48.8006 5.55433C48.5333 5.06758 47.6031 3.63867 45.8138 3.63867H13.0162C11.0194 3.63867 10.0201 5.60595 9.99799 5.65205L0.382829 23.9596L0.379141 23.9679L0.310922 24.0969C0.149594 24.4159 -0.208093 25.2825 0.146829 26.138C2.5898 30.1039 6.94474 32.7644 11.9441 32.7644C16.8318 32.7644 21.0955 30.2154 23.5661 26.3961C23.9441 25.5286 23.4177 24.4417 23.4177 24.4417L14.3207 7.11783L14.2322 6.95005C14.1095 6.66795 14.0008 6.1305 14.9761 6.1305H26.9033C27.2417 6.14156 28.1847 6.30934 28.1847 7.88852V48.9286C28.1626 49.3351 28.0087 50.1583 27.1633 50.6801L21.1923 54.3731C21.1923 54.3731 19.626 55.3614 21.1923 55.3614H38.1355C39.2906 55.3614 38.1355 54.5603 38.1355 54.5603L31.9847 50.7953C31.9819 50.7935 31.9819 50.7917 31.9792 50.7898C30.9679 50.1703 30.7789 49.3904 30.7512 48.9968V7.71336C30.7512 6.2863 31.7745 6.1388 32.134 6.1305H43.7967C44.1018 6.13603 45.032 6.23744 44.4466 7.35752L35.3136 24.7422C35.3136 24.7422 35.0278 25.4263 35.3496 26.1767C37.7953 30.1205 42.1336 32.7644 47.1173 32.7644C52.1092 32.7644 56.4633 30.1149 58.9062 26.1582C59.1505 25.5203 58.8758 24.8123 58.7845 24.6122ZM20.464 24.0647L20.465 24.0656L20.5903 24.3062C20.7839 24.7063 21.0762 25.4677 20.465 25.4677L3.12633 25.4659C2.55108 25.4659 2.66539 24.9395 2.84884 24.5145L3.12356 23.9927L3.12633 23.9881L11.3919 8.24989C11.3919 8.24989 11.8141 7.5972 12.157 8.24989H12.1579L20.464 24.0647ZM38.33 24.2555L38.4526 24.0222C38.4526 24.0213 38.4572 24.013 38.4572 24.013L46.5383 8.62602C46.5494 8.60942 47.0979 7.56586 47.6566 8.62878L55.7138 23.9679C55.8806 24.2979 56.3904 25.4696 55.1948 25.4696L39.1034 25.4668C39.1007 25.4668 39.1007 25.4668 39.1007 25.4668C37.928 25.4659 38.1401 24.6676 38.33 24.2555Z" fill="#005734"/>
</g>
<defs>
<clipPath id="clip0_500_194">
<rect width="59" height="59" fill="white"/>
</clipPath>
</defs>
</svg>
