<svg width="84" height="84" viewBox="0 0 84 84" fill="none" xmlns="http://www.w3.org/2000/svg">
<path d="M38.1535 16.9102H44.8803C45.6239 16.9102 46.337 17.2055 46.8628 17.7314C47.3886 18.2572 47.684 18.9703 47.684 19.7139V41.5423C47.684 42.2859 47.3886 42.999 46.8628 43.5248C46.337 44.0506 45.6239 44.346 44.8803 44.346H38.1541C37.4103 44.346 36.697 44.0505 36.171 43.5246C35.6451 42.9986 35.3496 42.2853 35.3496 41.5415V19.7142C35.3496 19.3459 35.4221 18.9813 35.563 18.6411C35.7039 18.3009 35.9104 17.9918 36.1708 17.7314C36.4311 17.471 36.7402 17.2645 37.0804 17.1236C37.4206 16.9827 37.7853 16.9101 38.1535 16.9102Z" fill="#005734"/>
<path d="M58.1681 25.9668H64.8949C65.6385 25.9668 66.3516 26.2622 66.8774 26.788C67.4033 27.3138 67.6986 28.0269 67.6986 28.7705V41.5427C67.6986 42.2863 67.4033 42.9994 66.8774 43.5252C66.3516 44.051 65.6385 44.3464 64.8949 44.3464H58.1688C57.425 44.3464 56.7116 44.0509 56.1857 43.525C55.6597 42.999 55.3643 42.2857 55.3643 41.5419V28.7707C55.3642 28.4025 55.4368 28.0378 55.5777 27.6977C55.7186 27.3575 55.9251 27.0484 56.1855 26.788C56.4458 26.5276 56.7549 26.3211 57.0951 26.1802C57.4353 26.0393 57.7999 25.9668 58.1681 25.9668Z" fill="#005734"/>
<path d="M18.139 4.49316H24.8657C25.2339 4.49316 25.5985 4.56569 25.9387 4.70659C26.2788 4.84749 26.5879 5.05401 26.8483 5.31436C27.1086 5.57471 27.3152 5.8838 27.4561 6.22396C27.597 6.56413 27.6695 6.92872 27.6695 7.29691V41.4086C27.6695 41.7767 27.597 42.1413 27.4561 42.4815C27.3152 42.8217 27.1086 43.1308 26.8483 43.3911C26.5879 43.6515 26.2788 43.858 25.9387 43.9989C25.5985 44.1398 25.2339 44.2123 24.8657 44.2123H18.1395C17.3957 44.2123 16.6823 43.9168 16.1564 43.3909C15.6304 42.8649 15.335 42.1516 15.335 41.4078V7.29704C15.335 6.55344 15.6304 5.8403 16.1562 5.31449C16.682 4.78869 17.3951 4.4933 18.1387 4.4933L18.139 4.49316Z" fill="#005734"/>
<path d="M64.1368 20.9945C64.4193 20.9946 64.699 20.9384 64.9595 20.8293C65.2201 20.7203 65.4563 20.5604 65.6545 20.3591C65.8527 20.1578 66.0088 19.919 66.1137 19.6568C66.2187 19.3945 66.2704 19.114 66.2658 18.8315L66.1226 9.75211C66.1135 9.19365 65.8853 8.66114 65.4873 8.26927C65.0893 7.87741 64.5533 7.65754 63.9948 7.65703H63.9603C63.3956 7.66592 62.8574 7.89879 62.4643 8.30441C62.0712 8.71003 61.8553 9.25519 61.8641 9.81998L61.9242 13.6417L55.6223 7.33984C54.4623 6.17391 53.0826 5.24959 51.5631 4.62033C50.0435 3.99108 48.4143 3.66939 46.7696 3.67387H35.9581C35.3935 3.67387 34.8519 3.89818 34.4527 4.29745C34.0534 4.69672 33.8291 5.23824 33.8291 5.80289C33.8291 6.36754 34.0534 6.90906 34.4527 7.30833C34.8519 7.70759 35.3935 7.9319 35.9581 7.9319H46.7696C47.8549 7.92874 48.9301 8.14091 49.9329 8.55613C50.9357 8.97135 51.8462 9.58136 52.6116 10.3509L58.9871 16.7264L54.9363 16.7188H54.9325C54.3679 16.7182 53.8262 16.942 53.4265 17.3409C53.0269 17.7398 52.8021 18.2812 52.8016 18.8458C52.801 19.4105 53.0248 19.9522 53.4237 20.3518C53.8226 20.7515 54.364 20.9763 54.9286 20.9768L64.133 20.9941L64.1368 20.9945Z" fill="#005734"/>
<path d="M22.031 52.9473H14.3737C14.0506 52.9473 13.7407 53.0756 13.5122 53.3041C13.2836 53.5326 13.1553 53.8426 13.1553 54.1657V80.2982C13.1553 80.6214 13.2836 80.9313 13.5122 81.1598C13.7407 81.3883 14.0506 81.5167 14.3737 81.5167H22.031C22.3797 81.5167 22.725 81.448 23.0472 81.3145C23.3694 81.1811 23.6621 80.9854 23.9087 80.7389C24.1553 80.4923 24.3509 80.1995 24.4843 79.8773C24.6177 79.5551 24.6864 79.2098 24.6864 78.8611V55.6028C24.6864 54.8986 24.4066 54.2231 23.9087 53.7251C23.4107 53.2271 22.7352 52.9473 22.031 52.9473Z" fill="#005734"/>
<path d="M70.4243 55.939C70.0068 55.3023 69.4371 54.7797 68.7669 54.4185C68.0966 54.0572 67.3469 53.8688 66.5855 53.8701H63.5852C62.2695 53.8677 60.9828 54.2571 59.8892 54.9888C58.7957 55.7205 57.9448 56.7613 57.4452 57.9785C57.238 58.472 56.9716 58.9383 56.6517 59.3673C55.8024 60.8713 54.5858 62.1357 53.1155 63.0422C51.6453 63.9488 49.9693 64.4681 48.244 64.5516H39.3521C38.8906 64.5404 38.4518 64.3492 38.1293 64.0188C37.8069 63.6884 37.6264 63.2451 37.6264 62.7834C37.6264 62.3218 37.8069 61.8784 38.1293 61.5481C38.4518 61.2177 38.8906 61.0265 39.3521 61.0152H48.1982C49.5244 60.9776 50.7988 60.4924 51.8142 59.6385C51.7094 58.0703 51.011 56.6009 49.8612 55.5293C48.7113 54.4578 47.1964 53.8647 45.6246 53.8707H39.1018C37.891 53.8672 36.6914 54.1035 35.5724 54.566C34.4533 55.0285 33.4369 55.708 32.5818 56.5653L32.4167 56.729C31.2695 57.8768 29.8116 58.6641 28.2227 58.9939V76.7335H51.7663C55.3209 76.7359 58.798 75.6949 61.7665 73.7396C64.7351 71.7844 67.0644 69.0008 68.4657 65.734L70.8083 60.281C71.11 59.5823 71.2329 58.8195 71.1658 58.0614C71.0988 57.3033 70.8439 56.5739 70.4243 55.939Z" fill="#005734"/>
</svg>
