      <svg
        width="59"
        height="59"
        viewBox="0 0 59 59"
        fill="none"
        xmlns="http://www.w3.org/2000/svg"
      >
        <path
          fill-rule="evenodd"
          clip-rule="evenodd"
          d="M29.8575 51C41.9287 51 51.7146 41.2141 51.7146 29.1429C51.7146 17.0717 41.9287 7.28575 29.8575 7.28575C17.7863 7.28575 8.00035 17.0717 8.00035 29.1429C8.00035 41.2141 17.7863 51 29.8575 51ZM29.8575 53.4286C43.2705 53.4286 54.1432 42.5559 54.1432 29.1429C54.1432 15.7299 43.2705 4.85718 29.8575 4.85718C16.4445 4.85718 5.57178 15.7299 5.57178 29.1429C5.57178 42.5559 16.4445 53.4286 29.8575 53.4286Z"
          fill="#B8B8B8"
        />
        <path
          d="M15.2861 43.2651C15.2861 42.0107 16.2236 40.9506 17.4718 40.8122C26.8401 39.7752 32.9176 39.8687 42.2651 40.8353C42.7319 40.8843 43.1743 41.0682 43.5383 41.3645C43.9023 41.6608 44.1721 42.0567 44.3148 42.5039C44.4575 42.951 44.4669 43.43 44.3418 43.8824C44.2168 44.3348 43.9627 44.7409 43.6106 45.0513C32.5788 54.6672 26.2742 54.5349 16.0633 45.061C15.5654 44.5996 15.2861 43.9439 15.2861 43.2663V43.2651Z"
          fill="#B8B8B8"
        />
        <path
          fill-rule="evenodd"
          clip-rule="evenodd"
          d="M42.14 42.0423C32.8665 41.083 26.8764 40.9932 17.6041 42.0193C17.2989 42.0548 17.0175 42.2017 16.8139 42.4318C16.6102 42.6619 16.4986 42.9591 16.5004 43.2663C16.5004 43.6136 16.6449 43.9427 16.8889 44.171C21.9501 48.8654 25.7848 50.9868 29.5333 51.0001C33.2951 51.0135 37.3363 48.9091 42.8127 44.137C42.9867 43.9821 43.1119 43.7801 43.1732 43.5554C43.2345 43.3306 43.2292 43.093 43.158 42.8712C43.0867 42.6495 42.9526 42.4532 42.7718 42.3063C42.5911 42.1593 42.3716 42.0681 42.14 42.0435V42.0423ZM17.3382 39.6053C26.8048 38.5573 32.9709 38.652 42.3914 39.6271C43.0936 39.7004 43.7592 39.9769 44.3067 40.4226C44.8542 40.8684 45.2599 41.4641 45.4741 42.1369C45.6882 42.8097 45.7016 43.5303 45.5125 44.2105C45.3234 44.8908 44.9401 45.5012 44.4095 45.9669C38.8541 50.8095 34.2277 53.4469 29.526 53.4287C24.8109 53.4117 20.3885 50.7293 15.2387 45.9511C14.87 45.6077 14.5761 45.1919 14.3753 44.7297C14.1745 44.2676 14.0712 43.769 14.0718 43.2651C14.07 42.3598 14.4023 41.4856 15.005 40.8101C15.6078 40.1345 16.4385 39.7051 17.3382 39.604V39.6053Z"
          fill="#B8B8B8"
        />
        <path
          d="M39.5716 24.2858C39.5716 26.8622 38.5482 29.3331 36.7264 31.1549C34.9046 32.9766 32.4337 34.0001 29.8574 34.0001C27.281 34.0001 24.8101 32.9766 22.9883 31.1549C21.1665 29.3331 20.1431 26.8622 20.1431 24.2858C20.1431 21.7094 21.1665 19.2386 22.9883 17.4168C24.8101 15.595 27.281 14.5715 29.8574 14.5715C32.4337 14.5715 34.9046 15.595 36.7264 17.4168C38.5482 19.2386 39.5716 21.7094 39.5716 24.2858V24.2858Z"
          fill="#B8B8B8"
        />
        <path
          fill-rule="evenodd"
          clip-rule="evenodd"
          d="M29.8574 31.5715C31.7896 31.5715 33.6428 30.8039 35.0091 29.4376C36.3755 28.0713 37.1431 26.2181 37.1431 24.2858C37.1431 22.3535 36.3755 20.5004 35.0091 19.134C33.6428 17.7677 31.7896 17.0001 29.8574 17.0001C27.9251 17.0001 26.0719 17.7677 24.7056 19.134C23.3392 20.5004 22.5716 22.3535 22.5716 24.2858C22.5716 26.2181 23.3392 28.0713 24.7056 29.4376C26.0719 30.8039 27.9251 31.5715 29.8574 31.5715V31.5715ZM29.8574 34.0001C32.4337 34.0001 34.9046 32.9766 36.7264 31.1549C38.5482 29.3331 39.5716 26.8622 39.5716 24.2858C39.5716 21.7094 38.5482 19.2386 36.7264 17.4168C34.9046 15.595 32.4337 14.5715 29.8574 14.5715C27.281 14.5715 24.8101 15.595 22.9883 17.4168C21.1665 19.2386 20.1431 21.7094 20.1431 24.2858C20.1431 26.8622 21.1665 29.3331 22.9883 31.1549C24.8101 32.9766 27.281 34.0001 29.8574 34.0001V34.0001Z"
          fill="#B8B8B8"
        />
      </svg>