<svg width="50" height="45" viewBox="0 0 50 45" fill="none" xmlns="http://www.w3.org/2000/svg">
<path d="M10.7003 4.11636L7.56137 0.955165C0.226074 8.24149 0.226074 13.522 0.226074 20.3453H2.45226L4.67845 20.205C4.67845 13.6868 4.67845 10.0959 10.7003 4.11636ZM41.8647 0.955165L38.7303 4.11636C44.7499 10.0959 44.7499 13.6867 44.7499 20.3453L49.2023 20.205C49.2023 13.522 49.2023 8.24149 41.8647 0.955165V0.955165ZM24.7142 44.8334C26.0928 44.8351 27.4378 44.4073 28.5621 43.6093C29.6864 42.8114 30.5342 41.683 30.9876 40.381H18.4408C18.8942 41.683 19.7419 42.8114 20.8662 43.6093C21.9905 44.4073 23.3355 44.8351 24.7142 44.8334V44.8334ZM40.2975 28.3284V18.1191C40.2975 10.9574 35.4333 4.92446 28.8437 3.11012C28.1915 1.46719 26.5975 0.30957 24.7142 0.30957C22.8308 0.30957 21.2369 1.46719 20.5846 3.11012C13.9928 4.92446 9.13084 10.9574 9.13084 18.1191V28.3284L5.33073 32.1285C5.1236 32.3349 4.95933 32.5802 4.84739 32.8503C4.73544 33.1204 4.67803 33.41 4.67845 33.7024V35.9286C4.67845 36.519 4.913 37.0853 5.33049 37.5028C5.74798 37.9203 6.31422 38.1548 6.90465 38.1548H42.5237C43.1141 38.1548 43.6804 37.9203 44.0978 37.5028C44.5153 37.0853 44.7499 36.519 44.7499 35.9286V33.7024C44.7503 33.41 44.6929 33.1204 44.5809 32.8503C44.469 32.5802 44.3047 32.3349 44.0976 32.1285L40.2975 28.3284Z" fill="#B8B8B8"/>
</svg>

