<svg width="29" height="30" viewBox="0 0 37 43" fill="none" xmlns="http://www.w3.org/2000/svg">
<path d="M32.2083 30.2917V20.1084C31.2292 20.3042 30.25 20.5001 29.2708 20.5001H28.2917V32.2501H8.70833V18.5417C8.70833 13.0584 13.0167 8.75008 18.5 8.75008C18.6958 6.20425 19.8708 4.05008 21.4375 2.28758C20.85 1.50425 19.675 0.916748 18.5 0.916748C16.3458 0.916748 14.5833 2.67925 14.5833 4.83341V5.42092C8.70833 7.18342 4.79167 12.4709 4.79167 18.5417V30.2917L0.875 34.2084V36.1667H36.125V34.2084L32.2083 30.2917ZM14.5833 38.1251C14.5833 40.2792 16.3458 42.0417 18.5 42.0417C20.6542 42.0417 22.4167 40.2792 22.4167 38.1251H14.5833ZM36.125 9.72925C36.125 13.4501 32.9917 16.5834 29.2708 16.5834C25.55 16.5834 22.4167 13.4501 22.4167 9.72925C22.4167 6.00841 25.55 2.87508 29.2708 2.87508C32.9917 2.87508 36.125 6.00841 36.125 9.72925Z" fill="#FEFFFE"/>
</svg>

